<!-- public/music-icon.svg -->
<svg width="24" height="24" viewBox="0 0 24 24" fill="none" xmlns="http://www.w3.org/2000/svg">
  <path d="M6 3H18C18.5304 3 19.0391 3.21071 19.4142 3.58579C19.7893 3.96086 20 4.46957 20 5V15.5858C20 15.9609 19.7893 16.4696 19.4142 16.8447C19.0391 17.2197 18.5304 17.4304 18 17.4304C17.4696 17.4304 16.9609 17.2197 16.5858 16.8447C16.2107 16.4696 16 15.9609 16 15.5858V6H8V15.5858C8 15.9609 7.78929 16.4696 7.41421 16.8447C7.03914 17.2197 6.53043 17.4304 6 17.4304C5.46957 17.4304 4.96086 17.2197 4.58579 16.8447C4.21071 16.4696 4 15.9609 4 15.5858V5C4 4.46957 4.21071 3.96086 4.58579 3.58579C4.96086 3.21071 5.46957 3 6 3Z" fill="#000000"/>
</svg>
